<svg xmlns="http://www.w3.org/2000/svg" viewBox="0 0 1211.57 887.57"><g data-name="Layer 2"><g data-name="Layer 1"><path fill="none" stroke="#8a898c" stroke-miterlimit="10" stroke-width="3" d="M72.06 1.06l533.72 533.72L1139.51 1.06" class="lines__line" data-animation-delay=".05s" style=""></path><path fill="none" stroke="#444348" stroke-miterlimit="10" stroke-width="3" d="M143.06 1.06l462.72 462.72L1068.51 1.06" class="lines__line" data-animation-delay=".05s" style=""></path><path fill="none" stroke="#444348" stroke-miterlimit="10" stroke-width="3" d="M214.06 1.06l391.72 391.72L997.51 1.06" class="lines__line" data-animation-delay=".05s" style=""></path><path fill="none" stroke="#444348" stroke-miterlimit="10" stroke-width="3" d="M285.06 1.06l320.72 320.72L926.51 1.06" class="lines__line" data-animation-delay=".05s" style=""></path><path fill="none" stroke="#444348" stroke-miterlimit="10" stroke-width="3" d="M356.06 1.06l249.72 249.72L855.51 1.06" class="lines__line" data-animation-delay=".05s" style=""></path><path fill="none" stroke="#444348" stroke-miterlimit="10" stroke-width="3" d="M427.06 1.06l178.72 178.72L784.51 1.06" class="lines__line" data-animation-delay=".05s" style=""></path><path fill="none" stroke="#444348" stroke-miterlimit="10" stroke-width="3" d="M498.06 1.06l107.72 107.72L713.51 1.06" class="lines__line" data-animation-delay=".05s" style=""></path><path fill="none" stroke="#d0f224" stroke-width="3" d="M1210.51 886.51L605.78 281.78 1.06 886.51" class="lines__line" data-animation-delay=".10s" style=""></path><path fill="none" stroke="#8a898c" stroke-miterlimit="10" stroke-width="3" d="M1139.51 886.51L605.78 352.78 72.06 886.51" class="lines__line" data-animation-delay=".10s" style=""></path><path fill="none" stroke="#444348" stroke-miterlimit="10" stroke-width="3" d="M1068.51 886.51L605.78 423.78 143.06 886.51" class="lines__line" data-animation-delay=".10s" style=""></path><path fill="none" stroke="#444348" stroke-miterlimit="10" stroke-width="3" d="M997.51 886.51L605.78 494.78 214.06 886.51" class="lines__line" data-animation-delay=".10s" style=""></path><path fill="none" stroke="#444348" stroke-miterlimit="10" stroke-width="3" d="M926.51 886.51L605.78 565.78 285.06 886.51" class="lines__line" data-animation-delay=".10s" style=""></path><path fill="none" stroke="#444348" stroke-miterlimit="10" stroke-width="3" d="M855.51 886.51L605.78 636.78 356.06 886.51" class="lines__line" data-animation-delay=".10s" style=""></path><path fill="none" stroke="#444348" stroke-miterlimit="10" stroke-width="3" d="M855.51 886.51L605.78 636.78 356.06 886.51" class="lines__line" data-animation-delay=".10s" style=""></path><path fill="none" stroke="#444348" stroke-miterlimit="10" stroke-width="3" d="M784.51 886.51L605.78 707.78 427.06 886.51" class="lines__line" data-animation-delay=".10s" style=""></path><path fill="none" stroke="#d0f224" stroke-width="3" d="M1.06 1.06l604.72 604.72L1210.51 1.06" class="lines__line" data-animation-delay=".05s" style=""></path><path fill="none" stroke="#444348" stroke-miterlimit="10" stroke-width="3" d="M713.51 886.51L605.78 778.78 498.06 886.51" class="lines__line" data-animation-delay=".10s" style=""></path></g></g></svg>