
<svg enable-background="new 0 0 512.02 512.02" version="1.1" viewBox="0 0 512.02 512.02" xml:space="preserve" xmlns="http://www.w3.org/2000/svg">
<path d="m64 320.01c-35.346 0-64-28.654-64-64s28.654-64 64-64 64 28.654 64 64c0 5.891-4.776 10.667-10.667 10.667h-94.656c4.865 18.842 21.863 32.005 41.323 32 27.093 0 34.624-4.096 44.928-17.259 3.635-4.636 10.34-5.448 14.976-1.813s5.448 10.34 1.813 14.976c-14.326 19.187-38.033 28.955-61.717 25.429zm-41.323-74.667h82.645c-5.891-22.816-29.162-36.537-51.978-30.646-15.029 3.88-26.766 15.617-30.646 30.646h-0.021z" fill="#F44336"/>
<g fill="#2196F3">
	<path d="m192 320.01c-35.346 0-64-28.654-64-64s28.654-64 64-64 64 28.654 64 64-28.654 64-64 64zm0-106.67c-23.564 0-42.667 19.103-42.667 42.667s19.103 42.667 42.667 42.667 42.667-19.103 42.667-42.667-19.103-42.667-42.667-42.667z"/>
	<path d="m138.67 320.01c-5.891 0-10.667-4.776-10.667-10.667v-149.33c0-5.891 4.776-10.667 10.667-10.667s10.667 4.776 10.667 10.667v149.33c-1e-3 5.891-4.776 10.667-10.667 10.667z"/>
</g>
<g fill="#FFC107">
	<path d="m373.33 320.01c-5.891 0-10.667-4.776-10.667-10.667v-64c0-21.099-29.867-32-42.667-32-13.28-1.865-26.394 4.361-33.344 15.829-2.907 5.124-9.418 6.92-14.541 4.013-5.045-2.863-6.877-9.232-4.125-14.338 10.657-18.284 30.934-28.747 52.011-26.837 22.976 0 64 17.813 64 53.333v64c0 5.891-4.776 10.667-10.667 10.667z"/>
	<path d="m309.33 320.01c-46.4 0-53.333-26.731-53.333-42.667-0.04-7.061 2.867-13.819 8.021-18.645 16.192-15.552 53.333-15.445 93.355-13.824 6.272 0.256 11.755 0.469 15.957 0.469 5.891-7e-3 10.672 4.764 10.679 10.655 2e-3 1.885-0.495 3.737-1.441 5.367 1.523 2.634 1.849 5.793 0.896 8.683-11.654 30.659-41.341 50.667-74.134 49.962zm19.712-54.507c-17.207-1.857-34.591 1.097-50.219 8.533-0.991 0.805-1.544 2.031-1.493 3.307 0 10.539 3.797 21.333 32 21.333 22.409 0.733 43.096-11.965 52.587-32.277l-5.397-0.235c-7.254-0.255-17.152-0.661-27.478-0.661z"/>
</g>
<g fill="#4CAF50">
	<path d="m437.33 309.34c-3.568-2e-3 -6.898-1.787-8.875-4.757l-64-96c-3.27-4.901-1.947-11.525 2.955-14.795s11.525-1.947 14.795 2.955l64 96c3.264 4.904 1.934 11.526-2.971 14.79-1.749 1.164-3.803 1.785-5.904 1.786v0.021z"/>
	<path d="m416 362.68c-5.891 0.01-10.675-4.758-10.685-10.649-3e-3 -1.862 0.481-3.692 1.405-5.309l85.333-149.33c2.946-5.119 9.483-6.882 14.603-3.936 5.119 2.946 6.882 9.483 3.936 14.603l-85.333 149.33c-1.92 3.29-5.449 5.307-9.259 5.291z"/>
</g>
<path d="m64 320.01c-35.346 0-64-28.654-64-64s28.654-64 64-64 64 28.654 64 64c0 5.891-4.776 10.667-10.667 10.667h-94.656c4.865 18.842 21.863 32.005 41.323 32 27.093 0 34.645-4.096 44.928-17.259 3.635-4.636 10.34-5.448 14.976-1.813s5.448 10.34 1.813 14.976c-14.32 19.194-38.031 28.964-61.717 25.429zm-41.323-74.667h82.645c-5.891-22.816-29.162-36.537-51.978-30.646-15.029 3.88-26.766 15.617-30.646 30.646h-0.021z"/>
<path d="m192 320.01c-35.346 0-64-28.654-64-64s28.654-64 64-64 64 28.654 64 64-28.654 64-64 64zm0-106.67c-23.564 0-42.667 19.103-42.667 42.667s19.103 42.667 42.667 42.667 42.667-19.103 42.667-42.667-19.103-42.667-42.667-42.667z"/>
<path d="m138.67 320.01c-5.891 0-10.667-4.776-10.667-10.667v-149.33c0-5.891 4.776-10.667 10.667-10.667s10.667 4.776 10.667 10.667v149.33c-1e-3 5.891-4.776 10.667-10.667 10.667z"/>
<path d="m373.33 320.01c-5.891 0-10.667-4.776-10.667-10.667v-64c0-21.12-29.867-32-42.667-32-13.271-1.844-26.368 4.377-33.323 15.829-2.675 5.248-9.099 7.334-14.347 4.659s-7.334-9.099-4.659-14.347c0.106-0.209 0.22-0.414 0.34-0.616 10.648-18.285 30.915-28.756 51.989-26.859 22.976 0 64 17.813 64 53.333v64c1e-3 5.892-4.775 10.668-10.666 10.668z"/>
<path d="m309.33 320.01c-46.4 0-53.333-26.731-53.333-42.667-0.043-7.062 2.865-13.821 8.021-18.645 16.192-15.552 53.333-15.445 93.355-13.824 6.272 0.256 11.755 0.469 15.957 0.469 5.891 0 10.667 4.776 10.667 10.667 6e-3 1.873-0.487 3.714-1.429 5.333 1.53 2.64 1.856 5.808 0.896 8.704-11.638 30.672-41.336 50.687-74.134 49.963zm19.734-54.507c-17.221-1.858-34.619 1.096-50.261 8.533-0.983 0.81-1.528 2.034-1.472 3.307 0 10.56 3.797 21.333 32 21.333 22.415 0.756 43.114-11.949 52.587-32.277l-5.397-0.213c-7.255-0.299-17.111-0.683-27.457-0.683z"/>
<path d="m437.33 309.34c-3.575 5e-3 -6.915-1.781-8.896-4.757l-64-96c-3.27-4.901-1.947-11.525 2.955-14.795s11.525-1.947 14.795 2.955l64 96c3.264 4.904 1.934 11.526-2.971 14.79-1.749 1.164-3.803 1.785-5.904 1.786l0.021 0.021z"/>
<path d="m416 362.68c-5.891-2e-3 -10.665-4.779-10.663-10.67 1e-3 -1.855 0.485-3.677 1.405-5.287l85.333-149.33c2.946-5.113 9.479-6.871 14.592-3.925s6.871 9.479 3.925 14.592l-85.333 149.33c-1.92 3.289-5.449 5.306-9.259 5.29z"/>

</svg>
