<?xml version="1.0" encoding="iso-8859-1"?>
<!-- Generator: Adobe Illustrator 19.0.0, SVG Export Plug-In . SVG Version: 6.00 Build 0)  -->
<svg version="1.1" id="Capa_1" xmlns="http://www.w3.org/2000/svg" xmlns:xlink="http://www.w3.org/1999/xlink" x="0px" y="0px"
	 viewBox="0 0 480 480" style="enable-background:new 0 0 480 480;" xml:space="preserve">
<g>
	<g>
		<rect y="464" width="480" height="16"/>
	</g>
</g>
<g>
	<g>
		<path d="M80,336H16c-4.418,0-8,3.582-8,8v96c0,4.418,3.582,8,8,8h64c4.418,0,8-3.582,8-8v-96C88,339.582,84.418,336,80,336z
			 M72,432H24v-80h48V432z"/>
	</g>
</g>
<g>
	<g>
		<path d="M176,240h-64c-4.418,0-8,3.582-8,8v192c0,4.418,3.582,8,8,8h64c4.418,0,8-3.582,8-8V248C184,243.582,180.418,240,176,240z
			 M168,432h-48V256h48V432z"/>
	</g>
</g>
<g>
	<g>
		<path d="M272,288h-64c-4.418,0-8,3.582-8,8v144c0,4.418,3.582,8,8,8h64c4.418,0,8-3.582,8-8V296C280,291.582,276.418,288,272,288z
			 M264,432h-48V304h48V432z"/>
	</g>
</g>
<g>
	<g>
		<path d="M368,160h-64c-4.418,0-8,3.582-8,8v272c0,4.418,3.582,8,8,8h64c4.418,0,8-3.582,8-8V168C376,163.582,372.418,160,368,160z
			 M360,432h-48V176h48V432z"/>
	</g>
</g>
<g>
	<g>
		<path d="M464,64h-64c-4.418,0-8,3.582-8,8v368c0,4.418,3.582,8,8,8h64c4.418,0,8-3.582,8-8V72C472,67.582,468.418,64,464,64z
			 M456,432h-48V80h48V432z"/>
	</g>
</g>
<g>
	<g>
		<path d="M408,0h-40v16h20.688L224,180.688l-74.344-74.344c-3.124-3.123-8.188-3.123-11.312,0l-136,136l11.312,11.312L144,123.312
			l74.344,74.344c3.124,3.123,8.188,3.123,11.312,0L400,27.312V48h16V8C416,3.582,412.418,0,408,0z"/>
	</g>
</g>
<g>
	<g>
		<rect width="112" height="16"/>
	</g>
</g>
<g>
	<g>
		<rect y="24" width="112" height="16"/>
	</g>
</g>
<g>
	<g>
		<rect y="48" width="112" height="16"/>
	</g>
</g>
<g>
	<g>
		<rect y="72" width="56" height="16"/>
	</g>
</g>
<g>
</g>
<g>
</g>
<g>
</g>
<g>
</g>
<g>
</g>
<g>
</g>
<g>
</g>
<g>
</g>
<g>
</g>
<g>
</g>
<g>
</g>
<g>
</g>
<g>
</g>
<g>
</g>
<g>
</g>
</svg>
