<svg xmlns="http://www.w3.org/2000/svg" fill-rule="evenodd" stroke-linejoin="round" stroke-miterlimit="1.414" clip-rule="evenodd" viewBox="0 0 181 26"><path fill="none" d="M0 0h181v25.327H0z"/><clipPath id="a"><path d="M0 0h181v25.327H0z"/></clipPath><g fill-rule="nonzero" clip-path="url(#a)"><path d="M8.328 6.585h5.376c2.095 0 2.896.723 2.896 2.494 0 1.706-.796 2.429-2.896 2.429H8.328V6.585zM0 24.508h8.328v-7.289h8.922c5.907 0 8.035-3.478 8.035-7.976 0-5.216-2.188-8.171-8.095-8.171H0v23.436zM28.03 1.072h22.42v5.71H36.362v3.152h13.086v5.711H36.362v3.152H50.45v5.711H28.03V1.072zm34.234 5.513h5.377c2.095 0 2.896.723 2.896 2.494 0 1.706-.796 2.429-2.896 2.429h-5.377V6.585zm-8.332 17.923h8.328v-7.289h8.917c5.907 0 8.035-3.478 8.035-7.976 0-5.216-2.187-8.171-8.094-8.171h-17.19v23.436h.004zm33.351-9.948c-4.076-.686-5.76-3.312-5.76-6.598 0-6.071 5.344-7.714 12.198-7.714 9.394 0 13.265 2.722 13.558 7.678h-9.687c0-.952-.503-1.542-1.272-1.872-.737-.361-1.684-.489-2.599-.489-2.48 0-3.335.691-3.335 1.674 0 .659.265 1.085 1.093 1.213l9.957 1.643c4.195.69 6.794 2.855 6.794 6.826 0 5.711-4.195 8.401-13.557 8.401-6.41 0-13.411-.984-13.439-7.875h10.044c.032.787.297 1.314.888 1.675.617.33 1.537.494 2.836.494 2.599 0 3.308-.787 3.308-1.903 0-.691-.384-1.377-1.505-1.574l-9.522-1.579zm23.656-13.488h8.328v23.436h-8.328zm39.199 14.312c-.531 3.084-1.478 5.577-3.546 7.284-2.041 1.707-5.23 2.659-10.309 2.659-5.051 0-14.413-.394-14.413-12.537C121.87.646 131.236.252 136.283.252c5.019 0 12.761.723 13.855 10.012h-9.394c-.238-1.675-1.24-4.104-4.461-4.104-3.395 0-5.555 1.871-5.555 6.63 0 4.758 2.096 6.63 5.139 6.63 2.626 0 4.195-1.213 4.873-4.036h9.398zm10.899-2.594c0-4.759 2.155-6.63 5.555-6.63 3.395 0 5.55 1.871 5.55 6.63 0 4.758-2.155 6.63-5.55 6.63-3.4 0-5.555-1.872-5.555-6.63zm-8.863 0c0 12.143 9.362 12.537 14.413 12.537S181 24.933 181 12.79C181 .646 171.638.252 166.587.252c-5.047 0-14.413.394-14.413 12.538z"/></g></svg>