<svg xmlns="http://www.w3.org/2000/svg" fill-rule="evenodd" stroke-linejoin="round" stroke-miterlimit="1.414" clip-rule="evenodd" viewBox="0 0 282 312"><path fill="none" d="M0 0h281.914v311.945H0z"/><clipPath id="a"><path d="M0 0h281.914v311.945H0z"/></clipPath><g fill-rule="nonzero" clip-path="url(#a)"><path d="M227.43 63.78c1.12 8.15 13.47 19.14 16.82 18.88 2.23 0 3.09-10.65 3.09-18.88 0-4.72.26-8.42-2.23-9.27-3.95 7.98-14.33 9.61-17.68 9.27zm.69-3.61c8.92 0 17.08-7.13 17.08-13.39 0-2.92-1.38-5.32-4.9-5.75.6.77.86 1.38.86 2.74 0 4.72-7.2 9.96-15.02 9.96-2.83 0-3.69 1.97-3.69 3 0 2.41 2.32 3.44 5.67 3.44zm-1.89-9.7c-1.2 0-2.92 0-3.87-1.89-.78-1.54-.51-4.03-1.98-5.15 1.46.43 3 .43 4.21.43 3.87 0 7.56-2.66 10.39-2.66 1.89 0 2.49 1.2 2.49 2.4 0 3.78-7.64 6.87-11.24 6.87zm-192.02 67.3c2.91 0 2.31-17.85 7.03-17.85 1.12 0 1.46 1.12 1.46 2.49 0 4.03-1.98 9.96-1.98 13.22 0 1.63.43 2.15 1.2 2.15 2.06 0 5.67-19.66 9.19-19.66 1.12 0 1.63 1.12 1.63 2.23 0 4.12-5.24 15.96-5.24 19.31 0 .51.17.94.6.94 2.15 0 6.44-9.27 7.82-13.9.77-2.4 1.8-3.69 2.74-3.69.86 0 1.63.94 1.63 2.92 0 4.63-4.29 15.54-8.07 22.83-2.92 5.66-7.47 13.82-7.47 18.37 0 2.32.43 4.72 3.78 7.64-5.49-.34-7.72-.86-9.79-5.15-9.18 18.28 16.91 16.48 7.99 32.7-1.63-2.92-14.51-5.92-14.51-22.92 0-14.68 12.88-23.27 12.88-29.36 0-1.2-.43-2.23-1.55-3.17-2.83-2.4-2.92-4.38-5.15-4.38-1.63 0-3.6 3.78-1.55 7.12.69 1.12 1.29 1.8 1.29 2.83 0 2.41-3.77 8.84-6.44 8.84-2.66 0-4.72-6.6-4.72-17.25 0-9.44 2.14-18.97 4.81-18.97.77 0 1.03.51 1.03 1.2 0 1.11-.34 3.34-.34 7.12.01 4.05.95 4.39 1.73 4.39zm131.5-84.38c1.37 0 1.63 3.35 1.89 5.33.17 1.03.34 1.11.77 1.11 1.03 0 2.66-3.95 3.78-3.95 1.63 0 6.01 4.55 13.3 4.55 10.38 0 20.18-7.3 20.18-20.17 0-12.45-8.76-19.75-20.86-19.75-5.75 0-9.96 2.83-12.19 2.83-1.37.09-3.43-3.34-4.47-3.34-.43 0-.86.85-.86 2.32 0 .94 0 3.95-1.03 3.95-2.06 0-10.04-5.93-10.04-3.78 0 1.98 5.32 7.99 5.32 9.53 0 1.55-5.24 3-5.24 4.03 0 1.89 5.58 2.23 5.58 4.64 0 2.4-5.84 4.29-5.84 6.09 0 1.46 5.84.43 5.84 2.23s-4.29 7.81-4.29 9.53c0 .43.09.43.43.43 1.63 0 6.53-5.58 7.73-5.58zM55.58 160.26c-.09-1.72 1.12-3.35 2.92-3.52 1.8-.26 3.44 1.12 3.6 2.92.18 1.81-1.12 3.35-2.92 3.61-1.8.08-3.43-1.21-3.6-3.01zm-9.53 2.66c.34 2.92 3.09 5.14 6.18 4.8 1.11-.09 2.15-.43 2.83-.86.69 2.75 2.83 4.47 6.01 4.12 3.18-.26 5.41-2.92 5.07-6.09 0-.86-.26-1.37-.51-1.98l.6-.09c3-.34 5.32-3.09 5.06-6.1-.34-3.09-3.17-5.32-6.09-5.07-1.12.26-2.06.6-2.75 1.2-.77-2.57-3.01-4.63-6.18-4.29-3.01.17-5.33 3.09-4.98 6.26 0 .43.17 1.12.43 1.72l-.6.08c-3.01.46-5.32 2.95-5.07 6.3zM237.3 5.49c0 1.2.94 2.15 2.15 2.15 1.2 0 2.15-.94 2.15-2.15 0-1.2-.95-2.15-2.15-2.15-1.21 0-2.15.95-2.15 2.15zm-47.89 81.38c0 1.98 1.63 3.61 3.6 3.61 1.97 0 3.61-1.63 3.61-3.61 0-1.97-1.63-3.61-3.61-3.61s-3.6 1.64-3.6 3.61zm.25 10.81zm-12.36 7.3c0 3.26 2.66 5.92 5.92 5.92s5.92-2.66 5.92-5.92-2.66-5.92-5.92-5.92-5.92 2.66-5.92 5.92zm3.17-12.1c0 1.89 1.55 3.44 3.43 3.44 1.89 0 3.44-1.54 3.44-3.44 0-1.89-1.55-3.43-3.44-3.43-1.88-.01-3.43 1.54-3.43 3.43zm-11.25 6.86c0 1.89 1.55 3.43 3.44 3.43s3.43-1.54 3.43-3.43c0-1.89-1.54-3.43-3.43-3.43-1.89 0-3.44 1.54-3.44 3.43zm8.85-20.08c0 3 2.49 5.49 5.5 5.49 3 0 5.49-2.49 5.49-5.49 0-3.01-2.49-5.49-5.49-5.49-3.01 0-5.5 2.48-5.5 5.49zm6.44-10.56c0 1.81 1.46 3.27 3.26 3.27 1.8 0 3.26-1.46 3.26-3.27a3.26 3.26 0 0 0-6.52 0zm-15.54 8.24c0 1.8 1.46 3.27 3.26 3.27 1.81 0 3.27-1.47 3.27-3.27s-1.46-3.26-3.27-3.26a3.26 3.26 0 0 0-3.26 3.26zm-.43 11.16c0 2.92 2.32 5.24 5.24 5.24 2.92 0 5.23-2.32 5.23-5.24 0-2.92-2.32-5.24-5.23-5.24-2.92 0-5.24 2.32-5.24 5.24zM157.73 94c0 2.66 2.23 4.89 4.89 4.89 2.66 0 4.89-2.23 4.89-4.89 0-2.66-2.23-4.89-4.89-4.89-2.66-.01-4.89 2.22-4.89 4.89zm2.92-12.11c0 1.89 1.54 3.44 3.43 3.44 1.89 0 3.43-1.55 3.43-3.44s-1.54-3.43-3.43-3.43c-1.89 0-3.43 1.54-3.43 3.43zm-11.42 126.53c0 1.88 1.54 3.42 3.43 3.42 1.88 0 3.43-1.54 3.43-3.42 0-1.9-1.55-3.44-3.43-3.44-1.89 0-3.43 1.54-3.43 3.44zM56.87 66.18c0 1.89 1.54 3.43 3.43 3.43 1.89 0 3.44-1.55 3.44-3.43 0-1.89-1.55-3.43-3.44-3.43s-3.43 1.54-3.43 3.43zm-4.47-7.72a3.436 3.436 0 0 0 6.87 0c0-1.89-1.54-3.44-3.43-3.44-1.89 0-3.44 1.55-3.44 3.44zm3.7 84.46c3.6 0 6.61-2.66 6.61-8.58v-8.75c0-3.35.26-7.13 2.49-9.79-.26 1.12-.26 2.32-.26 3.43 0 7.38 4.12 12.45 4.12 19.58 0 2.66-.77 4.12-2.83 4.12-1.98 0-1.81-1.8-2.23-1.8-.34 0-.86 1.11-.86 2.31 0 1.81 1.29 4.64 4.89 4.64 3.09 0 5.58-2.83 5.58-6.01 0-7.72-6-16.31-6-24.55 0-3.61.94-6.01 1.71-7.9 0 17.09 14.51 29.53 14.51 36.66 0 1.63-1.2 2.92-3.01 2.92-1.97 0-2.92-1.55-2.92-2.75 0-.6-.09-.77-.34-.77-.52 0-2.06 1.71-2.06 3.95 0 2.83 2.32 6.26 6.61 6.26 4.89 0 7.56-4.12 7.56-7.81 0-9.01-17.6-22.66-17.6-37.26 0-2.49.43-6.52 2.23-9.61-11.33 7.29-14.85 17-14.85 25.49 0 7.38-.26 11.07-4.03 11.07-1.97 0-2.49-1.8-3.18-1.8-.51 0-.77 1.55-.77 1.98-.01 3.17 2.31 4.97 4.63 4.97zm148.75-85.75c3.78 0 6.61-1.72 6.61-2.75 0-.34-.52-.6-1.63-.6-1.12 0-3.35-.09-7.56-.77-3.61-.6-6.36-1.97-7.39-1.97-.34 0-.51.17-.51.43.01 2.23 4.13 5.66 10.48 5.66zm-18.71-10.9c1.11-.69 5.92.43 12.19-2.67.77-.42 1.54-.59 2.23-.59 3.01 0 2.23 3.43 4.99 3.43 2.15 0 4.89-1.8 6.52-1.8 2.57 0 6.26 8.07 6.26 11.85 0 4.38-6.6 7.04-14.42 7.04-11.42 0-18.28-9.96-18.28-16.39 0-.53.26-.7.51-.87zM57.89 175.28c-2.83.69-7.38 5.15-7.38 12.19 0 8.41 9.01 21.37 23.86 21.37 12.53 0 15.62-8.67 15.62-14.51 0-12.96-7.98-22.06-18.37-22.06-5.67 0-10.73 4.12-10.73 10.22 0 5.67 4.29 14.16 14.51 14.16 4.8 0 7.64-3.43 7.64-7.38 0-3.85-3.52-9.18-8.67-9.18-1.55 0-2.66 1.03-2.66 2.66 0 2.06 2.84 4.12 6.35 4.12.86 0 1.54-.17 1.89-.35.17.26.26.69.26 1.03 0 1.97-1.88 3.17-4.8 3.17-4.38 0-8.58-3.26-8.58-8.41 0-3.09 2.66-5.32 6.53-5.32 7.64 0 12.19 6.79 12.19 13.56 0 6.1-3.35 9.62-10.21 9.62-13.75 0-20.45-12.35-17.45-24.89zm-8.58-93.3c-1.98.52-6.09 2.92-6.09 7.21 0 3.09 2.4 5.07 5.4 5.07 1.55 0 2.66-.35 3.35-.86-2.41-2.32-3.26-4.9-3.26-7.47 0-1.81.26-2.92.6-3.95zm-21.03 1.2c-.09.43-.09.86-.09 1.29 0 4.03 2.15 6.27 4.98 6.27 2.14 0 4.63-1.29 6.86-4.12-.94.17-2.06.26-3.09.26-3.16-.01-6.6-.87-8.66-3.7zm-3 7.64c0 6.52 1.97 9.61 5.49 9.61 2.75 0 6.44-1.97 10.82-5.75-3.35.77-5.92 1.29-8.24 1.29-3.09 0-5.5-1.2-8.07-5.15zm130.64 134.76c4.12 0 3.86-.34 5.16-.34 1.29 0 1.37.77 1.37 1.29 0 1.89-4.21 4.21-11.67 4.21-4.38 0-7.04-2.32-7.81-4.89-4.3 2.75-10.82 5.24-17.25 5.24-17.6 0-22.07-7.64-27.56-10.14-4.21-1.89-10.65 1.8-19.65-8.24 1.2.26 2.83.34 4.12.34 7.9 0 12.1-3.86 12.1-10.04 0-.78-.09-1.64-.17-2.4 2.41.94 7.9 5.06 9.18 12.36.17.86 3.69 1.63 5.93 1.63 3.09 0 7.04-1.29 7.64-6.35 10.3-.86 17.25-6.96 18.71-14.68 3.69 1.2 7.89 4.55 8.93 6.27 1.46-.52 3.18-.77 5.15-.77 2.75 0 5.84.52 9.53 1.63.17-1.12.34-2.49 2.06-2.49 2.57 0 1.89 2.83 2.75 4.46.43.86 2.57 1.37 2.57 3.09 0 1.63-1.38 2.23-2.23 2.23-.34 0-.77-.08-1.03-.17-1.72.6-1.81 12.96-9.02 12.96-5.32 0-10.21-4.38-12.36-9.87-.6-1.63-1.89-2.66-3.09-2.66-1.37 0-2.15.26-3.78 2.06-4.63 5.06-12.35 9.44-21.88 9.44-2.92 0-5.24-.25-5.84-.25-.34 0-.34.09-.34.17 0 .6 2.92 2.92 9.27 2.92 15.1 0 18.79-8.5 21.2-8.5.35 0 1.37 0 1.98 1.37 3.52 8.25 11.16 10.13 15.97 10.13h.06v-.01zM107.17 53.05c5.66 0 8.24 4.89 8.24 10.39 0 2.4-.69 5.92-1.8 5.92-1.12 0-.95-1.98-1.12-3.78-.17-2.31-.6-2.83-1.37-2.83-1.46 0-2.4 3.43-2.4 6.61 0 1.98.34 4.21 1.89 4.21.85 0 1.63-.43 2.14-.94-.34 3.95-3.26 7.38-7.38 7.38-7.56 0-10.39-8.84-11.25-13.99-4.54 4.81-8.75 8.33-16.31 8.33-7.04 0-10.21-5.15-10.21-10.04 0-1.46.51-5.24 2.31-5.24 2.15 0 .26 7.04 4.47 7.04 1.03 0 2.92-.86 3.95-3.69.6-1.72.94-3.52.94-5.07 0-2.32-.51-3.78-2.23-3.78-1.46 0-3.26 1.11-3.86 1.71 2.06-6.18 7.04-9.36 12.53-9.36 6.78 0 10.39 6.01 10.39 12.7 0 .94-.09 1.98-.26 2.92 2.92-4.81 6.95-8.49 11.33-8.49zM85.62 1.88c0-.51-2.57-1.03-6.1-1.03-5.58 0-4.8 4.64-9.09 4.64-4.46 0-3.35-4.81-9.01-4.81-3.44 0-6.61.6-6.61 1.37 0 1.03 4.03.6 4.03 3.44 0 3-8.67 3.86-8.67 5.66 0 .6.69.86 1.55.86 1.89 0 4.89-.86 7.03-.86 1.21 0 2.32.26 2.32 1.37 0 2.15-4.63 6.01-4.63 7.73 0 .52.43.69.86.69 1.71 0 4.64-4.38 7.38-4.38 4.55 0 1.55 9.7 4.03 9.7 2.58 0 1.46-9.53 5.15-9.53 3.01 0 5.24 6.61 7.3 6.61.51 0 .94-.43.94-1.03 0-1.8-2.58-5.49-2.58-7.9 0-1.46 1.03-2.15 2.41-2.15 1.97 0 4.64 1.2 6.1 1.2.52 0 1.03-.17 1.03-.77 0-2.06-7.64-4.29-7.64-6.95 0-2.65 4.2-2.65 4.2-3.86zM207.94 170.9c-1.8 0-11.77 13.31-18.2 13.31-1.55 0-2.84-2.92-2.84-5.15 0-1.2.77-2.06 3.53-2.66 14.76-3.35 11.5-14.42 24.11-14.42 6.96 0 14.69 4.72 14.69 15.37 0 11.32-16.14 25.41-18.55 25.41-1.97 0-4.12-2.84-4.12-4.72 0-.6.26-1.38 1.98-2.06 8.23-3.27 12.96-10.81 12.96-14.68 0-.86-.43-1.72-1.55-1.72-1.46 0-7.72 14.25-14.67 14.25-4.81 0-9.7-4.38-9.7-6.43 0-3.44 13.91-9.79 13.91-14.6 0-1.82-.86-1.9-1.55-1.9zm9.27-5.32c-1.2 0-2.49.95-2.49 3.26 0 2.58 1.98 4.21 3.09 4.72.6.34 1.55.69 2.49.69 2.49 0 4.46-.69 4.46-2.75.01-2.66-3.85-5.92-7.55-5.92zM105.8 10.64c0 1.55 5.41 4.89 7.9 4.89 1.46 0 1.89-1.98 1.89-4.04 0-2.57-1.12-2.66-3.35-2.66-2.84.01-6.44.78-6.44 1.81zm8.92 17c0-5.15-14.07-14.68-14.07-18.54 0-.17 0-.26.08-.43 1.03-2.83 12.7-4.81 12.7-7.13 0-1.12-2.06-1.12-3.09-1.12-7.99 0-19.66 2.92-19.66 5.76 0 2.92 10.47 10.04 10.47 13.57 0 .94-.6 1.28-1.54 1.28-2.92 0-9.28-3.52-12.28-3.52-1.38 0-1.89.94-1.89 2.32 0 4.12 4.89 11.94 4.89 14.25 0 .26-.09.6-.42.6-1.55 0-8.84-8.58-11.42-8.58-.94 0-1.03 1.28-1.03 3.17v2.92c0 1.97-.09 3.17-1.03 3.17-2.23 0-3.26-6.27-5.41-6.27-2.23 0-2.66 11.16-4.8 11.16-2.49 0-.35-12.28-2.75-12.28-2.66 0-5.67 8.16-7.55 8.16-.69 0-.86-.69-.86-1.29 0-2.48 1.46-6.52 1.46-8.93 0-1.2-.34-1.89-1.38-1.89-2.66 0-8.49 4.3-10.73 4.3-.34 0-.77-.17-.77-.52 0-2.06 9.36-8.58 9.36-11.5 0-2.83-12.88-.94-12.88-4.21 0-2.75 9.18-5.58 9.18-8.42 0-2.49-10.9-3.6-15.1-3.6-5.07 0-7.82.6-7.82 2.06 0 2.23 11.5 2.92 11.5 4.9 0 1.89-11.93 6.95-11.93 9.87 0 2.57 16.83.17 16.83 2.83 0 2.91-14.68 15.53-14.68 19.74 0 .95.69 1.37 1.63 1.37 4.47 0 16.06-8.49 19.23-8.49 1.12 0 1.2 1.37 1.2 2.57 0 2.23-.77 5.67-.77 8.16 0 1.97.51 3.34 2.23 3.34 3.18 0 6.09-5.41 8.24-5.41 2.75 0 1.11 15.88 5.24 15.88 3.51 0 4.97-17.17 7.21-17.17 2.23 0 4.04 4.98 6.1 4.98 2.57 0 1.37-8.67 4.12-8.67 3.01 0 11.59 10.3 15.45 10.3 1.2 0 1.63-.95 1.63-2.15 0-4.55-6.35-14.85-6.35-18.11 0-.86.26-1.12 1.2-1.12 3.35 0 13.13 4.64 17.77 4.64 1.55.02 2.49-.83 2.49-1.95zm117.18 98.8c1.37-4.29 3.09-7.3 5.91-11.94-2.83-1.45-10.29-4.55-10.29-9.61 0-5.92 7.39-10.55 8.92-10.55.69 0 .86.6.86 1.72 0 3.09-1.46 8.06-1.46 10.73 0 2.4 1.55 4.72 2.92 4.72 1.46 0 5.5-5.15 5.5-10.21 0-9.1-7.99-11.84-10.47-11.84-2.32 0-6.53 3.78-16.41 3.78-18.45 0-22.66-18.28-22.66-26.27 0-.35.08-.43.17-.43.43 0 2.24 2.23 8.07 2.23 3.01 0 5.75-.77 10.14-.77 10.29 0 14.85 7.13 21.2 16.23 3.85 2.4 13.04 6.26 13.04 17.16 0 9.61-10.22 14.93-12.7 25.23 3.94-.43 6.26-7.47 10.3-7.47 2.06 0 3 1.64 3 4.21 0 3.78-2.15 9.45-6.27 12.97.09-.35.09-.77.09-1.28 0-2.41-.95-5.84-3.7-5.84-4.28 0-5.66 4.63-8.07 8.5-2.49-8.75-5.84-16.65-11.84-21.46-6.09-4.9-16.57-2.23-16.57-11.16 0-2.4 1.54-5.84 1.54-8.58 0-.94-.17-1.8-.69-2.49 8.24 3.09 5.33 8.58 10.39 14.24 3.17 3.61 11.93 7.04 17 21.88.08-.42.17-1.54.17-2.31 0-12.7-16.82-25.15-18.28-30.3 9.78 1.12 11.49 3.52 16.14 16.39.95 2.65 4.05 9.25 4.05 12.52zM47.51 56.48c.43-1.38.77-3.09.77-4.98 0-4.12-1.88-10.39-7.73-10.39-3.35 0-5.75 2.66-5.75 5.84.01 6.79 6.79 9.53 12.71 9.53zm-7.3 21.63c-2.83 0-5.92-3.51-5.92-6.69 0-1.72 1.29-3.87 2.22-3.87.35 0 .52.26.6.86.51 4.21 3.26 6.61 5.84 7.81.26.17.43.26.43.43.01.6-1.62 1.46-3.17 1.46zm10.13-8.06c0 1.2-.69 2.75-2.06 2.75-3 0-5.4-4.56-5.4-7.13 0-1.62.94-1.8 2.23-1.8.6 0 .86.09 1.29.34.77.43.77 2.14 1.71 3.43.51.86 2.23 1.8 2.23 2.41zm-3-9.02c-.51-.09-1.2-.09-1.89-.09-2.83 0-6.61.51-9.96 2.75-7.56 4.89-6.36 12.62-7.56 14.59-.17.25-.26.6-.26.95 0 .77.86 1.63 1.63 1.63.69 0 1.12-.17 1.46-.17 2.06 0 4.38 1.46 7.72 1.46 1.98 0 4.29-.6 7.21-2.06 6.18-3.09 8.59-10.73 8.59-12.02 0-1.63-1.29-1.37-2.4-2.92-1.2-1.8-.6-2.49-1.37-3.52-.51-.43-1.63-.43-3.17-.6zm9.1 13.82c-1.89 2.23-3.86 6.01-3.86 9.87 0 4.63 2.83 8.49 7.21 8.49 4.21 0 6.18-3.61 6.18-7.29 0-5.75-5.24-9.78-9.53-11.07zM38.07 58.37s-2.48 1.89-5.58 1.89c-3.69 0-6.61-2.75-6.61-6.61 0-2.66 1.37-5.41 4.55-6.78-.09.51-.09.94-.09 1.46 0 4.89 2.75 8.58 7.73 10.04zm152.71 49.95c0-1.71 1.54-3.17 3.26-3.17 1.89 0 3.35 1.46 3.35 3.17 0 1.97-1.46 3.35-3.35 3.35-1.73 0-3.26-1.38-3.26-3.35zm2.22 98.73c.43 0 .94.26.94 1.8 0 1.88-.86 4.37-3.94 6.35-2.15 1.46-5.07 2.66-9.36 2.75.69-2.06 1.2-4.21 1.2-6.27 0-.69-.09-1.21-.17-1.97h1.12c6.78 0 9.7-2.66 10.21-2.66zm.69-8.51c.69-.6.86-1.54.86-2.49v-1.98c0-2.49-3.77-3.95-8.92-3.95-6.27 0-9.62 2.83-9.62 4.04v3.95c0 1.63 3.78 3.26 8.42 3.26 3.68.01 7.04-.94 9.26-2.83zm4.46.95c-2.23 1.71-7.46 5.58-16.14 5.58-4.64 0-6.7-1.46-7.38-1.46-.86 0-1.8.86-2.75 1.97-2.06 2.4-4.72 6.86-4.72 11.75 0 3.44 2.66 6.87 7.64 6.87 16.05 0 28.07-10.05 28.07-18.2.01-4.62-2.74-6.51-4.72-6.51zm3.01-72.19c0 2.14.69 4.63 2.84 4.63 1.8 0 3.35-2.75 3.35-5.75 0-3.44-.6-6.1-.6-7.47 0-.6.26-.86.6-.86 1.28.09 2.49 3.61 3.86 3.61 1.55 0 3.86-2.83 4.8-2.83.26 0 .35.34.35.43 0 1.29-1.98 4.12-1.98 5.24 0 .94 4.98 1.11 4.98 1.98 0 1.28-5.24 1.28-7.72 2.4-2.41 1.03-3.87 2.32-3.87 4.03 0 1.72 1.72 2.06 4.12 2.06 5.75 0 9.78-3.09 11.07-3.09.26 0 .43.17.43.43 0 .86-2.92 3.7-2.92 4.98 0 1.46 5.33 3.17 5.24 4.03-.09.26-.43.34-1.03.34-.94 0-2.4-.25-3.52-.25-.69 0-1.29.08-1.55.42-.6.69.17 5.24-1.03 5.24-1.11 0-4.04-10.13-10.64-10.13-.94 0-1.63.77-1.63 2.06 0 3.43 3.35 7.38 6.53 9.27 1.45.95 3.86 1.89 3.86 2.4 0 1.03-5.49.09-5.49 1.8 0 1.55.69 3.87.69 5.24 0 .43-.08.94-.6.94-1.03 0-3.52-4.72-4.72-4.72-1.03 0-3.26 2.83-4.21 2.83-.26 0-.43-.26-.43-.51 0-1.98 3.18-6.44 3.18-10.82 0-2.06-.26-6.52-2.75-6.52-2.06 0-4.38 3.26-5.41 6.52-.6 1.89-.17 9.18-1.54 9.18-1.29 0-.95-4.89-2.66-4.89-1.28 0-4.02 2.32-4.97 2.32-.17 0-.34-.09-.34-.26 0-1.03 2.49-4.37 2.49-5.06 0-1.29-5.67-1.46-5.67-2.49 0-.6 2.23-1.03 4.29-1.37 4.38-.77 10.82-3.95 10.82-8.41 0-4.98-4.81-7.12-7.98-9.18-1.63-1.03-3.44-1.89-3.44-2.58 0-.69 2.06-.69 2.92-.69 1.28 0 2.57-.09 2.57-1.11 0-.77-.18-2.31-.18-3.52 0-.86.09-1.54.43-1.54 1.29 0 3.1 4.2 3.95 4.2 1.37 0 3.26-3.43 4.55-3.43.43 0 .6.26.6 1.03-.01 3.17-1.64 6.78-1.64 9.87zm-40.95-25.15c.95 7.29 10.73 3.6 10.73 12.44 0 1.29-.35 3.18-.35 4.81 0 1.89.17 3.52 1.63 3.52s1.81-1.03 1.81-2.4c0-1.38-.34-3.08-.34-4.03 0-3.01 2.15-3.69 3.43-3.69 3.26 0 5.75 3.35 10.65 3.35-1.12 5.49-12.45 4.03-12.45 10.05 0 3 3 3.69 4.98 3.69 1.8 0 2.4-.26 2.4-1.8 0-.86-.17-1.8-.17-2.4 0-.35.26-.69.69-.69 1.89 0 11.16 7.04 11.16 9.19 0 1.97-9.78 3.95-12.62 3.95-.86 0-1.03-.6-1.03-.94 0-.6 1.46-2.41 1.46-3.44 0-.77-1.28-1.29-4.72-1.29-1.63 0-2.83.17-2.83 1.46 0 2.32 3.78 5.15 3.78 7.3 0 1.71-1.03 2.75-3.78 2.75-2.32 0-5.84-1.8-5.84-4.8 0-2.4 2.49-4.81 2.49-6.27 0-.43-.35-1.12-1.38-1.12-3.18 0-4.04 8.41-15.28 9.36 1.81-1.63 3.35-3.44 3.35-7.13 0-1.8-.43-3.26-.43-5.23 0-2.57 1.2-3.87 2.92-3.87 3.18 0 4.72 4.46 6.78 4.46 1.12 0 2.32-1.03 2.32-2.57 0-6.53-12.53-5.58-12.53-14.76 0-2.52.86-5.61 3.17-9.9zm16.31 55.79c0 1.2.86 2.15 2.06 2.15 1.37 0 2.24-1.2 2.24-2.58 0-1.8-1.63-4.29-3.18-4.29-.68 0-.42 1.03-.6 2.15-.09.85-.52 1.88-.52 2.57zm-4.46-11.42c9.01 1.71 13.91 8.5 13.91 14.85 0 4.38-2.75 8.41-7.56 8.41-4.38 0-7.55-3-7.55-7.81 0-3.61 2.84-7.38 2.84-11.08-.01-1.45-.44-2.91-1.64-4.37zm-11.41 14.6c.86.86 1.12 1.72 1.12 2.57 0 1.29-.6 2.66-.6 4.12 0 2.06 1.54 3.86 3.78 3.86 2.4 0 4.03-1.89 4.03-4.12-.01-3.25-3.36-6.43-8.33-6.43zm28.41-5.5c.6.94.86 1.89.86 2.75 0 2.4-1.63 4.64-1.63 7.13 0 2.83 2.15 5.15 5.4 5.15 3.52 0 5.93-2.83 5.93-6.18 0-4.55-4.13-8.42-10.56-8.85zm-26.36-4.55c3.95.51 4.89 1.89 4.89 3 0 1.89-1.72 2.49-3.35 2.49-1.2 0-2.57-.26-4.04-.26-1.89 0-3.78.43-5.32 2.23 1.11.17 2.75.94 2.75 2.66 0 4.98-13.82.86-13.82 13.64 0 6.79 7.04 14.16 17.68 14.16 5.5 0 9.01-1.79 9.01-3.85 0-1.63-2.92-.52-2.92-1.89 0-.6 1.03-1.72 1.03-2.66 0-.43-.34-1.2-1.03-1.2-1.55 0-4.46 2.49-10.39 2.49-4.63 0-9.19-2.66-9.19-6.27 0-.77.34-1.21.86-1.21s1.2.35 1.8.35c.52 0 .6-.35.6-1.29 0-.94 0-3.61 1.64-3.61 1.62 0 4.72 6.01 16.56 6.01 3.95 0 11.59-.77 14.42-3.35-.09 9.45-7.47 21.89-22.92 21.89-16.05 0-24.63-12.87-24.63-24.72 0-13.13 10.73-25.06 25.41-25.06 3.77 0 6.95 1.29 6.95 2.92.02 2.25-5.56.87-5.99 3.53zm-62.14-87.89c0-1.46-.34-1.8-.69-1.8-.86 0-1.81 1.03-3.18 3.34.17 3.09.69 4.47 1.54 4.47.96 0 2.33-3.01 2.33-6.01zM88.8 66.69c.95 0 2.15-1.03 4.38-3.51.17-1.12.17-2.15.17-3.44 0-1.72-.69-3.61-1.72-3.61-2.57 0-3.86 6.87-3.86 8.67 0 1.04.52 1.89 1.03 1.89zm13.99 7.65c2.15 0 4.55-8.24 4.55-13.39 0-1.12-.17-2.32-.69-2.32-1.8 0-4.81 8.49-4.81 13.14 0 1.79.43 2.57.95 2.57zm-21.03-4.73c2.92 0 6.27-15.79 6.27-18.45 0-.69-.26-1.2-.86-1.2-2.66 0-6.36 15.02-6.36 18.36 0 .61.18 1.29.95 1.29zm9.36 6.53c-3.69 0-3.86 4.47-3.86 13.48-2.75-5.92-7.3-12.28-12.62-12.28-3.61 0-4.98 2.4-4.98 6.61 0 .86.09 2.15.26 2.92.43-1.45 1.8-2.06 3.53-2.06 3.69 0 8.15 2.83 11.07 6.69-3.35-.6-6.61-1.2-9.36-1.2-1.72 0-3.26.17-4.55.77-2.49 1.11-5.84 4.81-5.84 10.39 0 .86.09 1.8.26 2.83 3-6.7 10.99-9.7 16.14-9.7 1.03 0 1.8.08 2.4.17-2.66 2.4-3.26 6.6-3.43 9.44-.09 1.37-.6 1.46-1.54 1.46 0 2.83 2.23 7.04 2.23 9.19 0 .77-.43 1.46-.86 1.63 0 3.77 3.77 6.52 3.77 8.92 0 .6-.17 1.12-.43 1.38.26 1.54 4.38 4.21 4.89 5.32.86 1.81 1.46 1.97 1.89 1.97 1.46 0 3.78-1.72 3.78-3.26 0-.52-.43-1.11-.77-1.37-1.63-1.2-2.49-3.78-3.18-5.49-.6 0-1.37-.34-1.63-1.2-.35-1.11-.52-5.15-1.2-7.12-1.12-.26-1.63-.69-1.63-3.01 0-1.12.68-5.5.68-7.04-.52 0-1.2-.34-1.2-1.37 0-2.74 2.75-4.89 3.52-8.41 4.89 3.61 6.09 7.29 6.09 10.56 0 1.71-.26 3.34-.6 4.89 3.61-1.8 9.01-4.46 9.01-9.87 0-3.18-1.46-6.69-11.16-8.07 3.01-1.12 6.79-1.72 9.96-1.72 5.49 0 8.67 1.72 9.36 5.58 1.11-1.71 1.97-3.69 1.97-5.49 0-4.21-3.51-6.95-7.98-6.95-5.24 0-9.87 2.74-14.85 6.09 2.24-4.63 3.78-7.38 6.53-7.38.43 0 .86.08 1.28.17-1.03-3.78-4.89-7.47-6.95-7.47zM36.35 22.66c0 1.71-6.52 7.47-8.84 7.47-.86 0-1.12-1.03-1.12-1.97 0-1.72.77-4.12 1.72-4.9 1.12-1.03 3.69-1.54 5.67-1.54 1.2 0 2.57.25 2.57.94zm199.4 115.37c4.29 0 7.72 5.58 7.72 12.11 0 6.95-3.26 14.51-9.09 19.65-.09-11.58-14.26-7.89-14.26-16.31 0-3.6 2.57-6.01 5.67-6.01 2.75 0 4.9.77 6.44 2.32-1.54-1.46-2.32-3.52-2.32-5.5.01-3.26 2.07-6.26 5.84-6.26zm-63.69-87.81c-.69-1.12-3.27-1.72-4.47-1.72-3.78 0-6.35 2.66-6.87 5.07-.34-.86-.6-1.89-.6-2.92 0-3.78 2.58-8.41 8.84-8.41 5.5 0 7.64 2.92 8.41 2.92.86 0 1.72-.86 2.4-.86.94 0 .94 1.46.94 2.49 0 3.44-1.54 9.35-5.41 11.5-.69-1.46-2.06-3.09-4.29-4.12-.6-.25-.86-.77-.86-1.28.02-.96.88-2.16 1.91-2.67zm-12.96 6.26c2.23 2.15 4.21 3.09 6.61 3.09.94 0 2.06-.26 2.66-.26.77 0 1.29.34 1.29.95 0 .94-.86 2.49-1.89 3.35 1.03.43 2.15.6 3.35.6 4.89 0 10.47-3.09 10.47-10.82 1.03 1.37 1.63 4.21 1.63 5.49 0 9.35-6.87 12.96-13.22 12.96-4.12 0-6.18-1.37-6.7-1.37-1.63 0-1.54 3.26-2.66 3.18-1.98-.34-3.78-4.72-3.78-9.36.01-2.75.69-5.66 2.24-7.81zM99.45 31.5c0 3 10.73 17.68 12.79 17.68 1.72 0 3-3 3-5.58 0-.68-.17-1.37-.51-1.88-1.55-2.14-12.45-10.73-14.85-10.73-.26 0-.43.25-.43.51zm123.85-7.04c0-6.09-14.59-7.64-14.59-9.01 0-1.12 8.15-3.01 12.36-3.09-6.45-8.24-15.62-7.38-15.62-8.84 0-.86 6.87-2.58 13.22-2.58 5.32 0 10.31 1.2 10.31 5.24 0 2.23-1.81 4.55-1.81 7.98 0 1.89.95 3.52 3.44 3.52 2.66 0 3.27-2.83 3.27-5.84 0-2.48-.43-4.38-.43-5.57 0-3.61 2.48-6.01 6.01-6.01 2.92 0 3.6 1.28 7.9 1.28-2.32 1.37-3.18 3.87-3.18 5.07 0 3.61 2.32 6.09 2.32 13.48 0 13.56-12.7 18.37-28.25 18.37-4.29 0-8.84-.35-13.3-1.03-.69-.09-.86-.26-.86-.68 0-1.12 6.1-1.72 6.1-7.21 0-2.15-.69-4.21-.69-4.98 0-.43.35-.69.69-.69 1.29 0 3.86 4.98 8.66 4.98 1.28-.01 4.45-.44 4.45-4.39zm14.51-8.67c0 7.64-5.57 13.48-15.62 15.11 1.11.09 2.15.09 3.18.09 11.75 0 16.05-5.33 16.05-9.78 0-2.5-1.38-4.73-3.61-5.42zm-8.15 69.02c0-1.8-4.55-1.98-4.98-7.04-.09-.77-.34-2.15-1.29-2.15-1.54 0-.34 4.72-2.06 4.72-3.95 0-5.24-7.72-6.7-7.72-.34 0-.77.26-.77 1.29 0 .94.17 1.55.17 2.66s-.26 1.89-1.28 1.89c-2.32 0-4.38-5.41-6.36-5.41-.43 0-.86.26-.86.69 0 1.03 1.72 2.92 1.72 3.86 0 2.06-5.59.94-5.59 2.66 0 .77.77 1.03 1.81 1.03 1.8 0 4.63-.77 6.09-.77.86 0 2.15.18 2.15 1.29 0 1.2-3.1 2.75-3.1 3.87 0 .52.52.77.94.77 2.32 0 6.43-4.03 9.35-4.03.52 0 1.81.25 1.81 1.03 0 1.11-2.92 3.08-2.92 4.72 0 .43.26.95.77.95 1.55 0 3.61-4.04 6.53-4.04 1.12 0 2.75.43 3.61.43.7-.01.96-.44.96-.7zm-61.46-65.5c0-.94-3.34-2.75-3.34-3.78 0-.17.17-.26.43-.26.94 0 2.57.34 3.86.34 1.11 0 1.29-4.8 2.15-4.8.6 0 1.63 4.55 2.58 4.55 1.11 0 3.17-1.29 4.03-1.29.17 0 .34.08.34.26 0 .6-2.15 2.92-2.15 3.61 0 .77 4.81 1.72 4.81 2.41 0 .86-4.9.77-4.9 1.54 0 .6 1.81 3.01 1.81 3.78 0 .17-.09.26-.26.26-.69 0-3.34-1.2-4.12-1.2-.94 0-2.49 3.53-3.26 3.53-.26 0-.43-.35-.43-.78l-.18-3.43c0-.35-.17-.69-.6-.69-1.03 0-3-.09-3.61-.09-.42 0-.6-.09-.6-.26.01-.69 3.44-3.1 3.44-3.7zm16.74 16.31c-6.01 0-9.96-3.01-9.96-4.55 0-.77.52-1.28 1.2-1.28 1.89 0 6.01 2.91 7.39 2.91.34 0 .6-.17.6-.68 0-1.54-1.46-4.12-1.46-5.41 0-.34.26-.6.78-.6 2.32 0 5.75.94 7.55.94.6 0 .77-.35.77-.69 0-1.89-5.58-5.58-5.58-6.7 0-1.03 6.95-2.57 6.95-4.21 0-1.72-9.44-.52-9.44-2.15 0-1.2 1.8-3.26 1.8-4.2 0-.43-.34-.6-.94-.6-.77 0-4.9 1.63-6.61 1.63-.86 0-1.89-.17-1.89-1.37 0-1.97 3.35-4.12 8.59-4.12 8.49 0 13.56 5.84 13.56 15.63-.01 12.36-8.68 15.45-13.31 15.45zm-58.11 148.51c0 .77-.26 1.63-.94 2.49-.94-1.72-3.61-2.57-4.8-2.57-8.85 0-5.5 12.79-14.94 12.79-3.95 0-4.29-.51-5.75-.51-.6 0-.95.26-.95.77 0 2.23 3.17 7.73 12.01 7.73 8.85 0 17.34-5.41 17.34-12.11 0-1.11-.26-2.32-.77-3.52.35-.52 1.2-.86 1.97-.86 1.37 0 2.15 1.55 3.44 1.55 1.37 0 2.4-1.03 2.4-2.4 0-1.12-.6-1.89-1.64-2.41.69-.51 1.21-1.37 1.21-2.31 0-1.46-1.03-2.83-2.75-2.83-.78 0-1.29.26-1.89.86-.17-1.55-1.03-3.01-2.66-3.01-1.28 0-2.23.94-2.23 2.41 0 1.35.95 2.46.95 3.93zm-23.1 3.26c-2.57 0-6.43-2.75-6.43-4.29 0-1.29 1.2-1.98 2.15-1.98 2.14 0 6.01 2.66 6.01 4.9-.01.59-.44 1.37-1.73 1.37zm-23.94-19.24c6.87 1.72 10.3 5.41 10.99 9.79.69 4.21 1.54 7.65 3.18 9.36 2.15 2.4 6.35 4.54 10.04 4.54 3.09 0 5.58-1.03 5.58-3.85 0-3.09-4.21-10.05-10.39-10.05-.6 0-1.38.09-2.23.09-.77 0-1.89-.17-2.58-.77-1.38-1.2-1.8-7.64-4.38-11.5-2.83-4.29-5.92-5.5-10.13-5.5-3 0-6.35 1.63-6.35 4.03 0 1.47.77 2.49 6.27 3.86zm43.09-10.47c0-3.86-7.98-3.95-7.98-9.78 0-1.46.94-3.95 2.83-6.62.77 4.47 2.58 6.79 6.43 8.25 7.64 2.83 8.67 7.12 8.67 11.68 0 7.72-5.41 17.34-19.31 17.34-11.16 0-19.14-9.96-19.14-18.37 0-2.32.6-4.89 2.06-4.89 1.29 0 1.72 1.03 2.75 2.06 3.86 3.86 8.07 4.89 14.16 4.89 5.5-.01 9.53-2.24 9.53-4.56zm.34 6.19c-3 1.2-4.12 1.11-4.12 4.11 0 1.12-.26 2.58-.26 3.35 0 1.03.17 1.63 1.37 1.63 3.09 0 7.98-5.24 7.98-9.7 0-1.2-.68-1.72-1.45-1.72-.69.01-1.46 1.38-3.52 2.33zm-27.38-43.36c0-5.49 13.05-8.41 13.05-15.19 0-1.11-.43-3.09-1.2-4.55 4.55 2.49 7.9 6.7 7.9 10.13 0 5.93-6.18 8.67-6.18 12.36 0 4.29 6.61 4.98 6.61 10.3 0 4.38-6.27 9.44-6.27 15.11 0 4.38 3.08 7.98 7.81 8.58-1.54.35-2.92.6-4.38.6-8.67 0-17.6-7.13-17.6-15.62 0-4.21 1.81-7.9 4.55-10.56 2.4 2.06 4.81 3.44 6.35 3.44 1.38 0 1.98-.69 1.98-1.72 0-3.18-12.62-6.09-12.62-12.88zm17.7 183.64c2.43 0 6.59-.79 9.88-6.05-1.88-4.16-3.21-12.59-3.41-15.65-.96-15.68 5.08-30.42 11.69-30.83 4.85-.29 8.73 4.3 9.17 11.71 1.2 19.55-5.32 27.71-8.57 34.73.55 2.74 5.17 7.38 9.54 7.38 1.62 0 3.56-.81 4.05-1.46-.33-1.12-.66-2.58-.66-4.69 0-11.32 7.29-20.87 13.6-20.87 5.02 0 7.92 6.63 7.92 11.02 0 5.17-4.36 9.38-10.83 13.42 1.14 1.12 3.23 1.94 5.02 1.94 9.22 0 14.06-11.16 17.63-21.36.65-1.94 1.78-4.69 4.04-4.69 3.89 0 5.51 25.56 11.97 25.56 2.76 0 5.02-5.66 5.02-10.02 0-3.24-1.13-3.56-1.13-8.26 0-5.17 2.75-9.54 6.48-9.54 2.26 0 3.07 2.26 3.07 5.01 0 10.36-7.44 29.61-18.44 29.61-8.26 0-7.62-14.25-10.52-14.25-3.25 0-7.78 14.42-23.79 14.42-2.6 0-5.34-1.3-7.6-3.9-3.88 2.6-7.13 3.73-10.85 3.73-5.98 0-8.57-6.15-10.99-6.15-2.92 0-6.14 6.32-15.86 6.32-7.77 0-9.06-10.35-11.81-10.35-2.43 0-6.15 10.35-10.19 10.35-6.81 0-8.25-17.96-14.24-17.96-4.69 0-19.51 18.23-23.54 17.82-1.62-.17-2.3-1.38-2.13-3 .23-2.24 2.15-8.23 2.94-11.07 1.31-4.91 2.51-10.31 3.18-12.03.67-1.73 2.47-2.97 3.9-2.83.72.07.94 1.42 1.17 2.54.81 4.01 1.96 8.09 3.25 8.09 2.27 0 9.78-14.4 14.14-14.4 5.34 0 5.99 22.65 13.27 22.65 2.43 0 4.22-2.91 5.83-6.47.16-5.99 1.78-14.56 6.63-14.56 3.41 0 5.02 7.59 2.59 14.24.01 7.91 5.18 9.85 8.58 9.85zm120.69-15.2c0-4.04-3.72-9.71-9.22-9.71-7.28 0-14.39 7.93-14.39 18.93 0 9.86 6.13 13.11 12.28 13.11 10.68 0 17.16-8.75 20.55-16.02 1.62 4.85 2.58 16.02 6.63 16.02 1.62 0 2.75-.81 4.7-5.18 4.85-10.84 9.53-23.3 16.01-23.3 2.42 0 .97 4.37 6.79 4.37 2.75 0 4.69-2.26 4.69-4.86 0-3.72-3.39-6.63-8.57-6.63-15.2 0-18.43 22.82-20.86 22.82-4.05 0-2.75-18.28-5.67-18.28-2.59 0-3.89 3.08-4.21 4.52-2.11 8.42-8.08 20.55-17.15 20.55-2.1 0-5.82-.82-5.82-2.92 0-2.26 14.24-2.58 14.24-13.42zm-98.6-21.24c-.28-4.52-1.37-6.56-3.79-6.39-3.23.2-4.71 10.33-4.06 20.98.42 6.96 1.45 8.02 2.42 7.96 1.78-.11 6.05-12.53 5.43-22.55zm-26.3-9.49c-.15-2.6-2.26-4.37-5.01-4.37-3.08 0-6 3.23-5.66 7.28 0 2.42 1.77 4.85 4.86 4.85 3.55 0 6.14-4.03 5.81-7.76zm50.32 32.99c0-2.74-1.46-5.02-3.24-5.02-1.47 0-4.85 1.62-4.85 6.8 0 4.05 1.45 5.98 2.11 6.8 4.68-1.46 5.98-5.34 5.98-8.58zm63.25-5.49c3.4 0 4.38 4.03 3.57 6.46-.82 2.42-3.72 5.17-8.25 5.98-.98-2.43-1.47-12.44 4.68-12.44zM.39 288.31c-.16-6.65.16-13.27 2.92-22.65 1.45-5.01 2.75-6.79 7.28-7.76 3.56-.65 3.24 3.07 2.43 7.44-1.78 9.7-2.6 14.39-1.94 25.4.63 11.64 5.99 16.18 11.8 16.18 8.74.16 12.62-7.11 14.24-17.63 1.29-8.41.32-12.46-.49-15.04-.48-1.45-1.77-4.7-2.26-7.11-.64-6.15 2.26-9.05 4.7-9.87 2.91-.81 4.05.65 5.17 4.05 1.46 5.18 1.62 11.96 1.14 21.66-.64 13.26-7.28 29.29-23.78 28.96-14.25-.34-20.55-9.57-21.21-23.63z"/></g></svg>