
<svg xmlns="http://www.w3.org/2000/svg" viewBox="0 0 64 64" width="512" height="512"><g id="laptop_template" data-name="laptop template"><path d="M14.293,31.293l-6,6a1,1,0,0,0,0,1.414l6,6,1.414-1.414L10.414,38l5.293-5.293Z"/><path d="M49.707,44.707l6-6a1,1,0,0,0,0-1.414l-6-6-1.414,1.414L53.586,38l-5.293,5.293Z"/><path d="M45,49V23a1,1,0,0,0-1-1H20a1,1,0,0,0-1,1V49a1,1,0,0,0,1,1H44A1,1,0,0,0,45,49Zm-2-1H21V24H43Z"/><path d="M24,36h6a1,1,0,0,0,1-1V27a1,1,0,0,0-1-1H24a1,1,0,0,0-1,1v8A1,1,0,0,0,24,36Zm1-8h4v6H25Z"/><path d="M24,46h6a1,1,0,0,0,1-1V39a1,1,0,0,0-1-1H24a1,1,0,0,0-1,1v6A1,1,0,0,0,24,46Zm1-6h4v4H25Z"/><path d="M34,46h6a1,1,0,0,0,1-1V27a1,1,0,0,0-1-1H34a1,1,0,0,0-1,1V45A1,1,0,0,0,34,46Zm1-18h4V44H35Z"/><path d="M61.76,54.35A1.011,1.011,0,0,0,61,54H60V21a3.009,3.009,0,0,0-3-3H7a3.009,3.009,0,0,0-3,3V54H3a1,1,0,0,0-.99,1.16l.73,4.33A2.978,2.978,0,0,0,5.69,62H58.31a2.978,2.978,0,0,0,2.95-2.51l.73-4.33A1,1,0,0,0,61.76,54.35ZM6,21a1,1,0,0,1,1-1H57a1,1,0,0,1,1,1V54H36a1,1,0,0,0-1,1v1H29V55a1,1,0,0,0-1-1H6ZM59.29,59.16a.989.989,0,0,1-.98.84H5.69a.989.989,0,0,1-.98-.84L4.18,56H27v1a1,1,0,0,0,1,1h8a1,1,0,0,0,1-1V56H59.82Z"/><path d="M7,14h4a1,1,0,0,0,1-1V9a1,1,0,0,0-1-1H7A1,1,0,0,0,6,9v4A1,1,0,0,0,7,14Zm1-4h2v2H8Z"/><path d="M15,14h4a1,1,0,0,0,1-1V9a1,1,0,0,0-1-1H15a1,1,0,0,0-1,1v4A1,1,0,0,0,15,14Zm1-4h2v2H16Z"/><path d="M23,14h4a1,1,0,0,0,1-1V9a1,1,0,0,0-1-1H23a1,1,0,0,0-1,1v4A1,1,0,0,0,23,14Zm1-4h2v2H24Z"/><path d="M37,14h4a1,1,0,0,0,1-1V9a1,1,0,0,0-1-1H37a1,1,0,0,0-1,1v4A1,1,0,0,0,37,14Zm1-4h2v2H38Z"/><path d="M45,14h4a1,1,0,0,0,1-1V9a1,1,0,0,0-1-1H45a1,1,0,0,0-1,1v4A1,1,0,0,0,45,14Zm1-4h2v2H46Z"/><path d="M53,14h4a1,1,0,0,0,1-1V9a1,1,0,0,0-1-1H53a1,1,0,0,0-1,1v4A1,1,0,0,0,53,14Zm1-4h2v2H54Z"/><rect x="30" y="10" width="4" height="2"/></g></svg>
